<svg xmlns="http://www.w3.org/2000/svg" xmlns:xlink="http://www.w3.org/1999/xlink" xmlns:sketch="http://www.bohemiancoding.com/sketch/ns" style="display: none;">
    <symbol id="icon_desktop_ios" viewBox="0 0 21 24">
      <path d="M19.7 18.703c-.362.839-.79 1.61-1.285 2.32-.675.968-1.228 1.637-1.654 2.009-.66.61-1.369.923-2.126.94-.545 0-1.2-.155-1.965-.47-.766-.314-1.47-.47-2.114-.47-.675 0-1.4.156-2.174.47-.776.315-1.401.48-1.88.496-.726.031-1.45-.29-2.173-.966-.462-.404-1.04-1.098-1.73-2.08-.743-1.049-1.353-2.265-1.83-3.652C.256 15.803 0 14.352 0 12.948 0 11.34.346 9.953 1.039 8.79a6.109 6.109 0 0 1 2.175-2.21 5.832 5.832 0 0 1 2.942-.835c.577 0 1.334.18 2.275.532.938.354 1.54.533 1.804.533.198 0 .867-.21 2.001-.628 1.073-.388 1.978-.548 2.72-.485 2.01.163 3.52.96 4.524 2.393-1.798 1.094-2.687 2.627-2.67 4.593.017 1.531.57 2.806 1.657 3.817a5.44 5.44 0 0 0 1.654 1.09c-.132.387-.273.758-.421 1.113zM15.09.48c0 1.2-.436 2.321-1.306 3.358-1.05 1.234-2.32 1.946-3.697 1.834a3.754 3.754 0 0 1-.028-.455c0-1.152.5-2.386 1.386-3.394.443-.51 1.006-.935 1.688-1.273.682-.334 1.326-.518 1.932-.55.018.16.025.32.025.48z" fill="#D3D5D8" fill-rule="nonzero"/>
    </symbol>
    <symbol id="icon_desktop_windows" viewBox="0 0 24 24">
      <path d="M0 3.398l9.778-1.332.004 9.432-9.773.056L0 3.398zm9.773 9.187l.008 9.44L.008 20.68l-.001-8.16 9.766.064zm1.185-10.693L23.923 0v11.378l-12.965.103V1.892zm12.968 10.781L23.923 24l-12.965-1.83-.018-9.518 12.986.021z" fill="#D3D5D8" fill-rule="nonzero"/>
    </symbol>
    <symbol id="icon_icon_download" viewBox="0 0 11 14">
      <path d="M6.5 7.781l2.058-1.666a.5.5 0 0 1 .704.074l.629.777a.5.5 0 0 1-.074.703l-3.964 3.21a.498.498 0 0 1-.35.11.498.498 0 0 1-.351-.11l-3.963-3.21a.5.5 0 0 1-.074-.703l.629-.777a.5.5 0 0 1 .703-.074L4.5 7.777V.5A.5.5 0 0 1 5 0h1a.5.5 0 0 1 .5.5v7.281zM.5 12h10a.5.5 0 0 1 .5.5v1a.5.5 0 0 1-.5.5H.5a.5.5 0 0 1-.5-.5v-1a.5.5 0 0 1 .5-.5z" fill="#FFF" fill-rule="evenodd"/>
    </symbol>
    <symbol id="icon_icon_investors" viewBox="0 0 32 32">
      <g fill="none" fill-rule="evenodd"><circle fill="#2F374E" cx="16" cy="16" r="16"/><path d="M18.988 12.599v-1.407c0-.69-.537-1.192-1.197-1.192h-3.593c-.66 0-1.198.501-1.198 1.192v1.407h5.988zm-1.197-.185h-3.593v-.907a.5.5 0 0 1 .5-.5h2.593a.5.5 0 0 1 .5.5v.907z" fill="#FFF" fill-rule="nonzero"/><path d="M11 12h10a1 1 0 0 1 1 1v1.9H10V13a1 1 0 0 1 1-1zM14.711 16v.333a.5.5 0 0 0 .5.5h1.572a.5.5 0 0 0 .5-.5V16H22v4a1 1 0 0 1-1 1H11a1 1 0 0 1-1-1v-4h4.711z" fill="#FFF" fill-rule="nonzero"/></g>
    </symbol>
    <symbol id="icon_icon_users" viewBox="0 0 32 32">
      <g fill="none" fill-rule="evenodd"><circle fill="#2F374E" cx="16" cy="16" r="16"/><path d="M13.61 16.005A3.98 3.98 0 0 0 16 16.8a3.98 3.98 0 0 0 2.39-.795c.341.144.662.32.96.524 1.22.838 2.04 2.146 2.14 3.633.006.102.01.206.01.31a.861.861 0 0 1-.57.81c-1.337.481-2.97.722-4.9.722-1.936 0-3.59-.242-4.96-.727a.854.854 0 0 1-.57-.805c0-1.982 1.274-3.69 3.11-4.467zM16 10.004a2.753 2.753 0 0 1 2.75 2.75 2.753 2.753 0 0 1-2.75 2.75 2.753 2.753 0 0 1-2.75-2.75 2.753 2.753 0 0 1 2.75-2.75z" fill="#FFF"/></g>
    </symbol>
    <symbol id="icon_icon_volume" viewBox="0 0 32 32">
      <g fill="none" fill-rule="evenodd"><circle fill="#2F374E" cx="16" cy="16" r="16"/><path d="M15.5 13.273h1a.5.5 0 0 1 .5.5V21.5a.5.5 0 0 1-.5.5h-1a.5.5 0 0 1-.5-.5v-7.727a.5.5 0 0 1 .5-.5zm4-3.273h1a.5.5 0 0 1 .5.5v11a.5.5 0 0 1-.5.5h-1a.5.5 0 0 1-.5-.5v-11a.5.5 0 0 1 .5-.5zm-8 6.545h1a.5.5 0 0 1 .5.5V21.5a.5.5 0 0 1-.5.5h-1a.5.5 0 0 1-.5-.5v-4.455a.5.5 0 0 1 .5-.5z" fill="#FFF"/></g>
    </symbol>
    <symbol id="icon_icon_withdraw" viewBox="0 0 32 32">
      <g fill="none" fill-rule="evenodd"><circle fill="#2F374E" cx="16" cy="16" r="16"/><path d="M20.302 12.787l-5.08 5.117a.5.5 0 0 1-.71 0l-.443-.447a.5.5 0 0 1 0-.705l5.075-5.113H17.54a.5.5 0 0 1-.5-.5V10.5a.5.5 0 0 1 .5-.5h3.42a1 1 0 0 1 1 1v3.416a.5.5 0 0 1-.5.5h-.657a.5.5 0 0 1-.5-.5v-1.629zM14.387 10a.5.5 0 0 1 .5.5v.64a.5.5 0 0 1-.5.5h-2.729v8.726h8.644v-2.772a.5.5 0 0 1 .5-.5h.662a.5.5 0 0 1 .5.494L22 20.991a1 1 0 0 1-1 1.011H11a1 1 0 0 1-1-1V11a1 1 0 0 1 1-1h3.387z" fill="#FFF"/></g>
    </symbol>
    <symbol id="icon_logo" viewBox="0 0 15 16">
      <path d="M5.749 4.852c0-.947.784-1.715 1.751-1.715.967 0 1.751.768 1.751 1.715v9.433C9.251 15.232 8.467 16 7.5 16c-.967 0-1.751-.768-1.751-1.715V4.852zM0 8.003a1.74 1.74 0 0 1 1.751-1.728 1.74 1.74 0 0 1 1.751 1.728v6.268A1.74 1.74 0 0 1 1.752 16 1.74 1.74 0 0 1 0 14.271V8.003zM11.498 1.73c0-.956.784-1.73 1.75-1.73A1.74 1.74 0 0 1 15 1.73v12.54A1.74 1.74 0 0 1 13.249 16a1.74 1.74 0 0 1-1.751-1.73V1.73z" fill="#FFF" fill-rule="evenodd"/>
    </symbol>
    <symbol id="icon_web" viewBox="0 0 24 24">
      <path d="M11.999 7.49a4.5 4.5 0 1 1-.002 9 4.5 4.5 0 0 1 .002-9zm0 10.5c.426 0 .842-.046 1.243-.126L9.82 23.8a12.074 12.074 0 0 1-2.523-.752l-.303-.124-.063-.032a11.89 11.89 0 0 1-.638-.329L6 22.414l-.107-.069c-.223-.131-.44-.277-.656-.424l-.347-.237c-.193-.143-.378-.298-.564-.452l-.372-.312c-.148-.132-.289-.28-.431-.423-.142-.141-.287-.282-.422-.43l-.31-.372c-.156-.186-.311-.37-.453-.564l-.235-.35c-.147-.215-.293-.43-.425-.656l-.069-.108-.15-.293a12.485 12.485 0 0 1-.327-.639c-.08-.17-.149-.344-.221-.516-.073-.181-.146-.361-.211-.544a11.92 11.92 0 0 1-.198-.62l-.134-.477a12.975 12.975 0 0 1-.145-.67l-.081-.473a12.99 12.99 0 0 1-.078-.656l-.04-.523c-.01-.198-.013-.398-.013-.597 0-.2.004-.399.014-.598l.039-.523c.02-.218.045-.436.078-.656l.08-.473c.043-.224.09-.447.146-.67l.134-.477c.06-.208.124-.415.198-.62.065-.184.138-.365.211-.543l.221-.518c.102-.217.213-.429.327-.638l.463-.668.004.01 4.136 7.171a5.994 5.994 0 0 0 5.937 5.184zm11.957-6.818c.027.372.034.745.028 1.116l-.006.297c-.02.372-.056.74-.108 1.106l-.029.243c-.07.427-.163.848-.278 1.266l-.124.387c-.094.3-.196.598-.313.89l-.177.417c-.137.31-.289.613-.452.91l-.105.21-.057.085a11.966 11.966 0 0 1-1.858 2.395l-.166.168-.05.045c-.33.312-.673.608-1.04.886l-.022.017c-.382.285-.777.558-1.2.801-.471.273-.956.496-1.445.699l-.077.032-.049.016c-1.436.574-3.433.842-4.917.842l4.218-7.316a5.987 5.987 0 0 0 .292-9.135h7.081c.342.973.754 2.424.839 3.426l.015.197zm-1.57-5.181H12a6 6 0 0 0-5.702 4.138l-3.412-5.92.111-.136c.164-.187.338-.369.516-.547l.306-.298c.161-.15.327-.295.497-.438l.413-.329c.156-.118.315-.234.477-.347.166-.114.335-.221.505-.326L6 1.602l.195-.1c.171-.095.346-.181.52-.267.18-.09.359-.18.54-.257L7.677.81c.22-.087.44-.174.663-.246l.182-.05C9.402.25 10.297.09 11.192.03L11.599 0l.52.003c.213.003.424.001.635.015l.404.041c.247.023.493.048.74.088l.356.07c.252.05.505.1.755.165l.383.11c.23.071.46.14.686.222l.47.187c.187.077.374.154.56.24.192.091.379.192.566.293l.325.17.085.056c.427.25.84.524 1.236.829l.078.066c.355.278.693.583 1.02.903l.2.207c.297.306.578.631.844.974l.097.12c.295.391.576.797.827 1.232z" fill="#D3D5D8" fill-rule="evenodd"/>
    </symbol></svg>